<svg id="Layer_1" enable-background="new 0 0 511.955 511.955" height="512" viewBox="0 0 511.955 511.955" width="512" xmlns="http://www.w3.org/2000/svg"><path d="m420.845 179.205c-40.94 40.94-107.56 40.94-148.5 0s-40.94-107.56 0-148.5 107.56-40.94 148.5 0 40.94 107.56 0 148.5z" fill="#54e360"/><path d="m420.845 179.205c-40.94 40.94-107.56 40.94-148.5 0l148.5-148.5c40.94 40.94 40.94 107.56 0 148.5z" fill="#00cc71"/><path d="m419.035 124.405-13.94 6.8.49 20.01c-11.65 14.67-27.97 24.9-47.45 27.85l-42.82-42.82-42.83-42.83c2.97-19.18 13.23-35.97 27.85-47.45l18.76 1.74 8.05-15.19c6.2-1.67 12.72-2.56 19.45-2.56 15.26 0 29.47 4.58 41.33 12.45l2.17 19.05 19.05 2.16c-.04-.07-.09-.14-.13-.21.05.07.09.14.14.21 11.68 17.68 15.5 39.88 9.88 60.79z" fill="#ffda2d"/><path d="m419.035 124.405-13.94 6.8.49 20.01c-11.65 14.67-27.97 24.9-47.45 27.85l-42.82-42.82 74.78-74.79 19.05 2.16c-.04-.07-.09-.14-.13-.21.05.07.09.14.14.21 11.68 17.68 15.5 39.88 9.88 60.79z" fill="#fdbf00"/><path d="m419.035 124.405c-2.65 9.89-7.28 18.97-13.45 26.81l-70.17-35.08-35.08-70.17c7.84-6.17 16.92-10.8 26.81-13.45l23.56 47.11 37.22-37.22c4.21 2.78 8.12 5.98 11.68 9.54s6.76 7.46 9.55 11.67l-37.23 37.23z" fill="#fff261"/><path d="m419.035 124.405c-2.65 9.89-7.28 18.97-13.45 26.81l-70.17-35.08 22.36-22.36 14.15 7.07z" fill="#ffda2d"/><path d="m409.155 63.615-37.23 37.23-14.72 14.72-10.61-10.61 53.01-53.01c3.56 3.56 6.76 7.46 9.55 11.67z" fill="#ffda2d"/><path d="m354.755 194.955-16.26 212.53-51.9 104.47h-30l-45-20.5-45 20.5h-30l-51.9-104.47-16.26-212.53 143.16-7z" fill="#ff637b"/><path d="m354.755 194.955-16.26 212.53-51.9 104.47h-30l-45-20.5v-303.5z" fill="#e63950"/><path d="m362.785 89.955-8.03 105h-286.32l-8.03-105z" fill="#d9f2ff"/><path d="m362.785 89.955-8.03 105h-143.16v-105z" fill="#cdf"/><path d="m256.595 451.955v60h-90v-60c0-24.81 20.19-45 45-45s45 20.19 45 45z" fill="#ff8e8e"/><path d="m256.595 451.955v60h-45v-105c24.81 0 45 20.19 45 45z" fill="#ff637b"/><path d="m338.495 407.485-8 104.47h-43.9v-60c0-24.81 20.19-45 45-45 2.35 0 4.65.18 6.9.53z" fill="#ff637b"/><path d="m136.595 451.955v60h-43.9l-8-104.47c2.25-.35 4.55-.53 6.9-.53 24.81 0 45 20.19 45 45z" fill="#ff8e8e"/><path d="m226.595 253.315-63.64 63.64 63.64 63.64 63.64-63.64z" fill="#e63950"/><path d="m290.235 316.955-63.64 63.64-15-15v-97.28l15-15z" fill="#cd0000"/><path d="m211.595 149.955v45l-47 26-43-26v-45z" fill="#cdf"/><path d="m409.155 63.615h-.01c-.04-.07-.09-.14-.13-.21.05.07.09.14.14.21z" fill="#e6ffff"/><path d="m121.595 194.955v45h90v-45z" fill="#e63950"/></svg>