<svg id="Capa_1" enable-background="new 0 0 512 512" height="512" viewBox="0 0 512 512" width="512" xmlns="http://www.w3.org/2000/svg"><path d="m273.57 182.609c-.846 0-1.706-.142-2.548-.441-3.962-1.407-6.032-5.76-4.625-9.722l59.465-167.38c1.407-3.961 5.761-6.032 9.721-4.625 3.962 1.407 6.032 5.76 4.625 9.722l-59.466 167.381c-1.107 3.118-4.041 5.065-7.172 5.065z" fill="#fb636f"/><path d="m151.353 45.176c-4.646-.659-6.498 5.784-2.236 7.746 30.844 14.195 54.729 42.407 61.989 78.233 9.094 44.874-10.487 88.898-46.146 113.089 50.782-14.4 82.673-65.738 72.015-118.331-8.81-43.478-44.071-74.845-85.622-80.737z" fill="#1dd0b0"/><path d="m236.975 125.913c-8.811-43.478-44.071-74.845-85.622-80.737-1.167-.165-2.157.118-2.919.665 36.315 9.629 65.91 39.036 73.877 78.35 7.491 36.967-6.039 73.313-32.374 96.649-7.01 8.981-15.408 16.912-24.977 23.403 50.783-14.399 82.674-65.736 72.015-118.33z" fill="#04b49c"/><path d="m60.122 102.641c-3.958 2.521-1.175 8.62 3.339 7.338 32.663-9.273 69.153-3.371 97.966 19.125 36.088 28.178 49.84 74.356 38.48 115.922 29.216-43.962 20.061-103.701-22.236-136.726-34.966-27.301-82.151-28.202-117.549-5.659z" fill="#1dd0b0"/><path d="m177.67 108.301c-21.025-16.416-46.466-23.274-71.107-21.243 19.104 1.588 37.978 8.564 54.216 21.243 25.324 19.773 38.753 49.122 39.195 78.928 5.055 18.788 5.132 38.775-.067 57.799 29.215-43.963 20.06-103.702-22.237-136.727z" fill="#04b49c"/><path d="m74.887 148.854c-3.958 2.521-1.175 8.62 3.339 7.338 32.663-9.273 69.153-3.371 97.966 19.125 36.088 28.178 49.84 74.356 38.48 115.922 29.216-43.962 20.061-103.701-22.236-136.726-34.966-27.301-82.151-28.203-117.549-5.659z" fill="#1dd0b0"/><path d="m192.435 154.513c-21.829-17.044-48.421-23.798-73.933-20.982 18.181 1.997 36.051 8.899 51.526 20.982 19.322 15.087 31.703 35.753 36.694 57.938 12.251 24.283 15.144 52.458 7.948 78.788 29.217-43.961 20.062-103.7-22.235-136.726z" fill="#04b49c"/><path d="m374.287 317.694c0 69.701-56.504 126.205-126.205 126.205s-126.205-56.504-126.205-126.205c0-15.862 2.926-35.933 8.268-57.477 7.452-30.054 35.075-92.119 35.075-92.119l164.493-2.236s28.561 63.247 36.218 93.999c5.398 21.679 8.356 41.884 8.356 57.833z" fill="#fa4954"/><path d="m365.93 259.861c-7.657-30.751-36.218-93.999-36.218-93.999l-30.866.419c8.69 20.75 19.447 47.973 23.714 65.109 5.398 21.678 8.357 41.884 8.357 57.833 0 69.701-56.504 126.205-126.205 126.205-16.244 0-31.77-3.072-46.033-8.661 22.852 22.936 54.469 37.132 89.404 37.132 69.701 0 126.205-56.504 126.205-126.205-.001-15.949-2.959-36.154-8.358-57.833z" fill="#fa2a3b"/><path d="m453.656 209.202c-2.025-11.937-9.435-45.94-28.859-51.985-6.487-2.019-14.968-3.072-24.01-3.054 5.146-7.434 9.091-15.015 11.11-21.503 6.045-19.425-17.748-44.821-26.428-53.262-1.908-1.855-4.576-2.686-7.199-2.241-11.937 2.025-45.94 9.435-51.985 28.859-2.019 6.487-3.072 14.968-3.054 24.01-7.434-5.146-15.015-9.091-21.503-11.11-19.425-6.045-44.821 17.748-53.262 26.428-1.855 1.908-2.686 4.576-2.241 7.199 2.025 11.937 9.435 45.94 28.859 51.985 6.487 2.019 14.968 3.072 24.01 3.054-5.146 7.434-9.091 15.015-11.11 21.503-6.045 19.425 17.748 44.821 26.428 53.262 1.908 1.855 4.576 2.686 7.199 2.241 11.937-2.025 45.94-9.435 51.985-28.859 2.019-6.487 3.072-14.968 3.054-24.01 7.434 5.146 15.015 9.091 21.503 11.11 19.425 6.045 44.821-17.748 53.262-26.428 1.856-1.907 2.687-4.575 2.241-7.199z" fill="#fbe7c5"/><path d="m453.656 209.202c-.843-4.97-2.625-13.765-5.813-22.774-.283.427-.596.838-.96 1.213-8.442 8.68-33.838 32.474-53.262 26.428-5.193-1.616-11.087-4.467-17.046-8.18-1.941-1.209-4.467.118-4.573 2.402-.324 7.013-1.322 13.484-2.938 18.677-6.045 19.425-40.048 26.834-51.985 28.859-2.624.445-5.292-.385-7.199-2.241-4.931-4.796-14.736-15.065-21.18-26.601-.256.709-.502 1.413-.716 2.099-6.045 19.425 17.749 44.822 26.429 53.263 1.904 1.851 4.58 2.684 7.198 2.24 11.937-2.025 45.941-9.434 51.986-28.859 2.019-6.487 3.072-14.968 3.054-24.01 7.434 5.146 15.015 9.091 21.503 11.11 19.425 6.045 44.821-17.748 53.262-26.428 1.855-1.906 2.686-4.574 2.24-7.198z" fill="#fdd8a3"/><ellipse cx="349.941" cy="180.873" fill="#fcb143" rx="18.985" ry="18.985" transform="matrix(.297 -.955 .955 .297 73.252 461.261)"/><path d="m362.307 166.471c-.099.412-.189.825-.317 1.236-3.116 10.011-13.757 15.602-23.769 12.486-2.555-.795-4.817-2.085-6.724-3.725-2.309 9.637 3.203 19.544 12.803 22.532 10.011 3.116 20.653-2.475 23.769-12.486 2.32-7.456-.194-15.257-5.762-20.043z" fill="#fa9801"/><path d="m322.471 501.737c-8.88-18.118-24.178-32.514-42.932-40.225-7.92-3.256-13.15-10.896-13.15-19.459v-26.624h-36.614v26.624c0 8.563-5.23 16.202-13.15 19.459-18.754 7.711-34.052 22.107-42.932 40.225-2.32 4.734 1.165 10.263 6.437 10.263h135.905c5.271 0 8.757-5.529 6.436-10.263z" fill="#fa4954"/><path d="m322.471 501.737c-8.88-18.118-24.178-32.514-42.932-40.225-7.92-3.256-13.15-10.896-13.15-19.458v-26.624h-25.076v26.624c0 8.563 5.23 16.202 13.15 19.458 18.754 7.711 34.052 22.107 42.932 40.225 2.32 4.734-1.165 10.263-6.437 10.263h25.076c5.272 0 8.758-5.529 6.437-10.263z" fill="#fa2a3b"/><path d="m123.768 339.555c10.353 59.281 62.068 104.345 124.314 104.345s113.961-45.064 124.314-104.345z" fill="#fa9801"/><path d="m320.47 339.555c-19.441 44.652-63.951 75.874-115.76 75.874-16.242 0-31.766-3.071-46.027-8.659 22.85 22.935 54.465 37.13 89.399 37.13 62.245 0 113.961-45.064 124.314-104.345z" fill="#f88604"/></svg>