<svg height="512pt" viewBox="0 0 512.00755 512" width="512pt" xmlns="http://www.w3.org/2000/svg"><path d="m148.523438 271.359375-.058594-.019531-14.097656-5.097656-72.882813 200.65625 14.023437 5.070312.074219.027344 14.097657 5.097656 72.882812-200.652344zm0 0" fill="#bbdcff"/><path d="m89.679688 477.09375 72.882812-200.652344-14.039062-5.082031-73.015626 200.609375.074219.027344zm0 0" fill="#9abadb"/><path d="m177.996094 365.757812-5.550782-2.019531c-19.640624-7.144531-32.609374 1.59375-60.023437 6.847657 0-.003907 0-.003907 0-.003907-17.566406-21.542969-21.964844-36.679687-41.570313-43.824219l-5.59375-2.035156c-23.390624-8.539062-49.195312 3.585938-57.660156 26.886719-8.476562 23.332031 3.589844 49.195313 26.859375 57.660156l5.597657 2.035157c18.222656 6.648437 31.148437-.125 60.027343-6.851563 0 .003906.003907.003906.003907.007813 17.726562 21.769531 21.972656 36.6875 41.589843 43.820312l5.550781 2.023438c5.023438 1.828124 10.222657 2.738281 15.421876 2.738281 18.101562 0 35.515624-11.125 42.234374-29.628907 8.539063-23.425781-3.566406-49.15625-26.886718-57.65625zm-127.660156 17.371094-5.59375-2.039062c-7.761719-2.824219-11.777344-11.449219-8.964844-19.210938 2.855468-7.816406 11.523437-11.808594 19.199218-8.980468l5.59375 2.039062c7.144532 2.59375 8.699219 8.566406 20.269532 23.34375-19.609375 4.140625-23.609375 7.363281-30.503906 4.847656zm126.355468 30.035156c-2.789062 7.714844-11.269531 11.796876-19.214844 8.960938l-5.550781-2.019531c-6.980469-2.558594-7.601562-7.164063-20.265625-23.34375 19.765625-4.171875 23.617188-7.359375 30.535156-4.847657l5.550782 2.019532c7.746094 2.835937 11.8125 11.394531 8.945312 19.230468zm0 0" fill="#ffda2d"/><path d="m141.675781 448.28125 5.550781 2.023438c5.023438 1.828124 10.222657 2.738281 15.421876 2.738281 18.105468 0 35.519531-11.125 42.238281-29.628907 8.535156-23.425781-3.570313-49.15625-26.890625-57.65625l-5.550782-2.023437c-19.640624-7.140625-32.609374 1.597656-60.023437 6.851563 0-.003907 0-.003907 0-.003907l-12.335937 33.878907c17.730468 21.769531 21.972656 36.6875 41.589843 43.820312zm20.519531-56.367188 5.550782 2.019532c7.746094 2.835937 11.8125 11.394531 8.945312 19.230468-2.789062 7.714844-11.269531 11.796876-19.214844 8.960938l-5.550781-2.019531c-6.980469-2.558594-7.601562-7.164063-20.265625-23.34375 19.765625-4.171875 23.617188-7.359375 30.535156-4.847657zm0 0" fill="#fdbf00"/><path d="m380.972656 275.925781-14.089844 5.121094-14.089843 5.128906 69.519531 191.015625 14.09375-5.125 14.085938-5.125zm0 0" fill="#bbdcff"/><path d="m366.910156 281.066406 14.085938-5.125 69.480468 191.039063-14.085937 5.121093zm0 0" fill="#9abadb"/><path d="m184.757812 172.0625-.078124-.035156-11.320313-5.0625-61.484375 29.992187-8.398438 22.496094c-14.089843 38.96875-5.101562 81.53125 23.351563 111.523437.015625.015626.027344.035157.042969.050782 41.089844-4.5 75.28125-31.792969 89.378906-70.484375l23.09375-63.585938zm0 0" fill="#ff641a"/><path d="m216.25 260.542969 23.09375-63.585938-54.585938-24.894531-.078124-.035156-57.851563 158.945312c.015625.015625.027344.035156.042969.050782 41.089844-4.496094 75.28125-31.789063 89.378906-70.480469zm0 0" fill="#f03800"/><path d="m240.945312.00390625h29.992188v61.98437475h-29.992188zm0 0" fill="#e0f4ff"/><path d="m332.496094 25.285156 26.828125 13.414063-29.992188 59.984375-26.828125-13.414063zm0 0" fill="#bbdcff"/><path d="m179.375 25.285156 29.992188 59.984375-26.828126 13.414063-29.992187-59.984375zm0 0" fill="#e0f4ff"/><path d="m255.941406.00390625h14.996094v61.98437475h-14.996094zm0 0" fill="#bbdcff"/><path d="m501.75 432.332031-70.46875 25.648438-70.460938 25.640625 10.25 28.175781 70.464844-25.640625 70.464844-25.644531zm0 0" fill="#e0f4ff"/><path d="m385.128906 331.152344-.011718-.003906-.003907.003906zm0 0"/><path d="m80.679688 458.199219-.140626-.050781-70.339843-25.746094-10.199219 28.195312 70.382812 25.457032.101563.039062 70.183594 25.792969 10.496093-28.195313zm0 0" fill="#e0f4ff"/><path d="m198.554688 133.972656-.023438-.007812-56.363281-20.6875-30.292969 83.679687h127.46875l16.597656-43.988281zm0 0" fill="#e0f4ff"/><path d="m255.941406 152.96875-57.386718-18.996094-.023438-.007812-22.925781 62.992187h63.738281zm0 0" fill="#bbdcff"/><path d="m140.667969 511.886719 10.496093-28.195313-70.484374-25.492187-.140626-.050781-10.15625 27.90625.101563.039062zm0 0" fill="#bbdcff"/><path d="m504.28125 351.59375c-8.480469-23.269531-34.328125-35.261719-57.6875-26.871094l-5.535156 2.035156c-19.625 7.125-24.042969 22.289063-41.589844 43.820313-.003906 0-.003906.003906-.003906.003906-27.183594-5.210937-40.367188-13.972656-60.027344-6.847656l-5.550781 2.023437c-23.382813 8.519532-35.394531 34.277344-26.902344 57.65625 8.582031 23.546876 34.492187 35.335938 57.671875 26.890626l5.550781-2.023438c19.605469-7.128906 23.824219-22.015625 41.59375-43.824219 29.476563 6.867188 42.214844 13.285157 60.058594 6.847657l5.535156-2.035157c23.300781-8.464843 35.367188-34.328125 26.886719-57.675781zm-144.328125 68.511719-5.550781 2.019531c-7.824219 2.863281-16.390625-1.203125-19.226563-8.960938-2.800781-7.746093 1.113281-16.359374 8.960938-19.230468l5.550781-2.019532c6.898438-2.503906 10.675781.617188 30.535156 4.847657-12.652344 16.164062-13.292968 20.789062-20.269531 23.34375zm107.160156-39.015625-5.535156 2.035156c-7.15625 2.5625-12.171875-.980469-30.535156-4.847656 12.617187-16.113282 13.304687-20.832032 20.296875-23.34375l5.535156-2.035156c7.777344-2.796876 16.375 1.199218 19.230469 8.960937 2.8125 7.777344-1.199219 16.40625-8.992188 19.230469zm0 0" fill="#ffda2d"/><path d="m471.859375 411.304688 5.535156-2.035157c23.300781-8.464843 35.367188-34.328125 26.886719-57.675781-8.476562-23.269531-34.328125-35.261719-57.683594-26.871094l-5.539062 2.035156c-19.621094 7.125-24.042969 22.289063-41.589844 43.820313l12.332031 33.875c29.476563 6.871094 42.214844 13.289063 60.058594 6.851563zm-40.816406-33.023438c12.617187-16.117188 13.304687-20.835938 20.296875-23.347656l5.535156-2.035156c7.777344-2.796876 16.375 1.203124 19.230469 8.964843 2.8125 7.773438-1.199219 16.402344-8.992188 19.226563l-5.535156 2.035156c-7.15625 2.5625-12.171875-.980469-30.535156-4.84375zm0 0" fill="#fdbf00"/><path d="m431.285156 457.96875 70.46875-25.644531 10.253906 28.175781-70.46875 25.644531zm0 0" fill="#bbdcff"/><path d="m408.285156 219.421875-8.175781-22.464844-70.058594-29.992187-3.941406 2.050781-53.671875 27.941406 23.109375 63.503907c14.160156 38.878906 48.464844 65.953124 89.570313 70.6875 28.441406-30.042969 37.3125-72.84375 23.167968-111.726563zm0 0" fill="#ff641a"/><path d="m408.285156 219.421875-8.175781-22.464844-70.058594-29.992187-3.941406 2.050781 59.007813 162.132813c28.441406-30.042969 37.3125-72.84375 23.167968-111.726563zm0 0" fill="#f03800"/><path d="m369.679688 113.335938-56.371094 20.515624-57.367188 19.117188 16.496094 43.988281h127.671875zm0 0" fill="#e0f4ff"/><path d="m369.679688 113.335938-56.371094 20.515624 22.96875 63.105469h63.832031zm0 0" fill="#bbdcff"/></svg>