<svg id="Capa_1" enable-background="new 0 0 512 512" height="512" viewBox="0 0 512 512" width="512" xmlns="http://www.w3.org/2000/svg"><path d="m211 15c0 8.401-6.599 15-15 15s-15 6.599-15 15v60c0 8.401-6.599 15-15 15s-15-6.599-15-15v-60c0-13.2 5.7-25.201 15-33.3 7.8-7.2 18.3-11.7 30-11.7 8.401 0 15 6.599 15 15z" fill="#8bdb52"/><path d="m211 15c0 8.401-6.599 15-15 15s-15 6.599-15 15v60c0 8.401-6.599 15-15 15v-108.3c7.8-7.2 18.3-11.7 30-11.7 8.401 0 15 6.599 15 15z" fill="#5dc379"/><path d="m256 137.401h-194.7l17.101 102.599 33.599 30 144 30 144 31 23.701-31 26.999-162.599z" fill="#edf5ff"/><path d="m423.701 300 26.999-162.599h-194.7v162.599l144 31z" fill="#d5e8fe"/><path d="m466 120h-210-210c-8.401 0-15 6.599-15 15s6.599 15 15 15h210 210c8.401 0 15-6.599 15-15s-6.599-15-15-15z" fill="#d5e8fe"/><path d="m481 135c0 8.401-6.599 15-15 15h-210v-30h210c8.401 0 15 6.599 15 15z" fill="#b5dbff"/><path d="m256 424.97h-147.209l12.415 74.491c1.2 7.236 7.455 12.539 14.794 12.539h120 120c7.339 0 13.594-5.303 14.795-12.539l12.415-74.491z" fill="#d5e8fe"/><path d="m390.795 499.461 12.415-74.491h-147.21v87.03h120c7.339 0 13.594-5.303 14.795-12.539z" fill="#b5dbff"/><path d="m196 60c-11.7 0-21.899 4.501-30 11.7-8.101-7.2-18.3-11.7-30-11.7-24.901 0-45 20.099-45 45s20.099 45 45 45c11.7 0 21.899-4.501 30-11.7 8.101 7.2 18.3 11.7 30 11.7 24.901 0 45-20.099 45-45s-20.099-45-45-45z" fill="#fc1c5c"/><path d="m370 300c-31.199 0-61.5-8.699-87.9-25.499-8.617-5.502-17.329-10.289-26.1-14.491-27.567-13.206-55.779-20.01-84-20.01h-93.6l30.3 184.999c13.8 16.502 34.199 27.001 57.3 27.001h90 90c23.101 0 43.5-10.499 57.299-27.001l20.402-124.999z" fill="#8bdb52"/><path d="m403.299 424.999 20.402-124.999h-53.701c-31.199 0-61.5-8.699-87.9-25.499-8.617-5.502-17.329-10.289-26.1-14.491v191.99h90c23.101 0 43.5-10.499 57.299-27.001z" fill="#5dc379"/><path d="m241 105c0 24.901-20.099 45-45 45-11.7 0-21.899-4.501-30-11.7v-66.6c8.101-7.2 18.3-11.7 30-11.7 24.901 0 45 20.099 45 45z" fill="#dd0056"/><path d="m166 120c-24.901 0-45 20.099-45 45s20.099 45 45 45 45-20.099 45-45-20.099-45-45-45z" fill="#fa8b28"/><path d="m211 165c0 24.901-20.099 45-45 45v-90c24.901 0 45 20.099 45 45z" fill="#fc1c5c"/><path d="m391 15c0 8.401-6.599 15-15 15s-15 6.599-15 15v60c0 8.401-6.599 15-15 15s-15-6.599-15-15v-60c0-13.2 5.7-25.201 15-33.3 7.8-7.2 18.3-11.7 30-11.7 8.401 0 15 6.599 15 15z" fill="#8bdb52"/><path d="m391 15c0 8.401-6.599 15-15 15s-15 6.599-15 15v60c0 8.401-6.599 15-15 15v-108.3c7.8-7.2 18.3-11.7 30-11.7 8.401 0 15 6.599 15 15z" fill="#5dc379"/><path d="m376 60c-11.7 0-21.899 4.501-30 11.7-8.101-7.2-18.3-11.7-30-11.7-24.901 0-45 20.099-45 45s20.099 45 45 45c11.7 0 21.899-4.501 30-11.7 8.101 7.2 18.3 11.7 30 11.7 24.901 0 45-20.099 45-45s-20.099-45-45-45z" fill="#fc1c5c"/><path d="m421 105c0 24.901-20.099 45-45 45-11.7 0-21.899-4.501-30-11.7v-66.6c8.101-7.2 18.3-11.7 30-11.7 24.901 0 45 20.099 45 45z" fill="#dd0056"/><path d="m346 120c-24.901 0-45 20.099-45 45s20.099 45 45 45 45-20.099 45-45-20.099-45-45-45z" fill="#fa8b28"/><path d="m391 165c0 24.901-20.099 45-45 45v-90c24.901 0 45 20.099 45 45z" fill="#fc1c5c"/></svg>