<svg id="Layer_1" enable-background="new 0 0 128 128" height="512" viewBox="0 0 128 128" width="512" xmlns="http://www.w3.org/2000/svg"><path d="m30 18.7h12.2v27.5h-12.2z" fill="#fa983c"/><path d="m37 18.7h5.2v27.5h-5.2z" fill="#ed862f"/><path d="m114 50.8-49.1-36.8-50.9 36.8h9v57h82v-57z" fill="#dc3531"/><path d="m14 50.8h2.7 6.3v57h75.7v-57h6.3 2.7l-45.9-34.5z" fill="#fb6255"/><path d="m32.5 60.9h31.5v46.9h-31.5z" fill="#69d4fd"/><circle cx="65.6" cy="37.2" fill="#dc3531" r="4.3"/><path d="m57.7 60.9h6.3v46.9h-6.3z" fill="#3ec0e8"/><path d="m116.5 109.5h-105c-1 0-1.8-.8-1.8-1.8s.8-1.8 1.8-1.8h105c1 0 1.8.8 1.8 1.8s-.8 1.8-1.8 1.8z" fill="#525959"/><path d="m57.7 75h39v39h-39z" fill="#fa983c"/><path d="m82.2 88-5-4-5 4v-13h10z" fill="#ddeeef"/><path d="m89.8 75h6.9v39h-6.9z" fill="#ed862f"/><circle cx="64" cy="36.1" fill="#fdc262" r="4.3"/><g fill="#68210c"><path d="m116.5 106h-9.8v-53.4h7.3c1 0 1.8-.8 1.8-1.7 0-.6-.3-1.1-.7-1.4l-25.6-19.3c-.8-.6-1.9-.4-2.5.3-.6.8-.4 1.9.3 2.5l21.3 16h-3.6c-1 0-1.8.8-1.8 1.8v55.2h-4.8v-31c0-1-.8-1.8-1.8-1.8h-31v-12.3c0-1-.8-1.8-1.8-1.8h-31.3c-1 0-1.8.8-1.8 1.8v39.4c0 1 .8 1.8 1.8 1.8s1.8-.8 1.8-1.8v-37.7h28v10.7h-4.5c-1 0-1.8.8-1.8 1.8v31h-31.3v-55.3c0-1-.8-1.8-1.8-1.8h-3.6l45.5-32.9 11.9 8.9c.8.6 1.9.4 2.4-.4.6-.8.4-1.9-.3-2.4l-12.8-9.6c-.6-.5-1.5-.5-2.1 0l-32.2 23.2v-15.3h8.8v2.4c0 1 .8 1.8 1.8 1.8s1.8-.8 1.8-1.8v-4.1c0-1-.8-1.8-1.8-1.8h-12.3c-1 0-1.8.8-1.8 1.8v19.6l-15.2 11c-.8.6-1 1.7-.4 2.4.3.5.9.7 1.4.7h7.2v53.5h-9.8c-1 0-1.8.8-1.8 1.8s.8 1.8 1.8 1.8h44.6v4.5c0 1 .8 1.8 1.8 1.8h39c1 0 1.8-.8 1.8-1.8v-4.5h18c1 0 1.8-.8 1.8-1.8s-.9-1.8-1.9-1.8zm-21.5 6.3h-35.5v-35.5h11v11.3c0 1 .8 1.8 1.7 1.8.4 0 .8-.1 1.1-.4l3.9-3.1 3.9 3.1c.8.6 1.9.5 2.5-.3.2-.3.4-.7.4-1.1v-6.5c0-1-.8-1.8-1.8-1.8s-1.8.8-1.8 1.8v2.9l-2.2-1.7c-.6-.5-1.5-.5-2.2 0l-2 1.6v-7.6h21z"/><path d="m82.6 29.4.7.5c.8.6 1.9.4 2.4-.4.6-.8.4-1.9-.3-2.4l-.7-.5c-.8-.6-1.9-.4-2.4.4-.6.7-.5 1.8.3 2.4z"/><path d="m58 36.1c0 3.3 2.7 6 6 6s6-2.7 6-6-2.7-6-6-6-6 2.7-6 6zm8.5 0c0 1.4-1.1 2.5-2.5 2.5s-2.5-1.1-2.5-2.5 1.1-2.5 2.5-2.5 2.5 1.1 2.5 2.5z"/><path d="m40.4 86.1c1 0 1.8-.8 1.8-1.8s-.8-1.8-1.8-1.8h-2.3c-1 0-1.8.8-1.8 1.8s.8 1.8 1.8 1.8z"/></g></svg>