<?xml version="1.0" encoding="iso-8859-1"?>
<!-- Generator: Adobe Illustrator 19.0.0, SVG Export Plug-In . SVG Version: 6.00 Build 0)  -->
<svg xmlns="http://www.w3.org/2000/svg" xmlns:xlink="http://www.w3.org/1999/xlink" version="1.1" id="Layer_1" x="0px" y="0px" viewBox="0 0 512 512" style="enable-background:new 0 0 512 512;" xml:space="preserve" width="512" height="512">
<g>
	<path style="fill:#91DC5A;" d="M371.326,292.563l-110.4,122.701c-40.499,25.199-83.399,38.099-122.999,38.099   c-22.2,0-43.5-4.199-62.401-12.599c-17.701,12.9-42.599,11.4-58.5-4.499c-15.899-15.901-17.401-40.801-4.499-58.5   c-30.901-68.701-3.301-167.1,68.099-238.5s169.801-99,238.5-68.101c17.701-12.9,42.599-11.4,58.5,4.501   c15.899,15.899,17.401,40.8,4.499,58.5C401.926,178.564,398.327,236.764,371.326,292.563z"/>
	<path style="fill:#64C37D;" d="M371.326,292.563l-110.4,122.701c-40.499,25.199-83.399,38.099-122.999,38.099   c-22.2,0-43.5-4.199-62.401-12.599c-17.701,12.9-42.599,11.4-58.5-4.499L377.627,75.664c15.899,15.899,17.401,40.8,4.499,58.5   C401.926,178.564,398.327,236.764,371.326,292.563z"/>
	<path style="fill:#FFDA44;" d="M512,270.964v15c0,90.899-75.099,165-166,165s-165-74.101-165-165v-15h60l105,45.3l6.301,2.699   L451,270.964H512z"/>
	<path style="fill:#FFAD41;" d="M512,270.964v15c0,90.899-75.099,165-166,165v-134.7l6.301,2.699L451,270.964H512z"/>
	<g>
		
			<rect x="56.117" y="341.035" transform="matrix(0.7071 0.7071 -0.7071 0.7071 272.5829 53.9937)" style="fill:#C2FB3B;" width="29.997" height="29.997"/>
	</g>
	<g>
		<g>
			<g>
				
					<rect x="124.906" y="322.388" transform="matrix(0.7071 0.7071 -0.7071 0.7071 279.545 -0.1092)" style="fill:#91DC5A;" width="29.997" height="29.997"/>
			</g>
		</g>
	</g>
	<g>
		
			<rect x="67.469" y="280.824" transform="matrix(0.7071 0.7071 -0.7071 0.7071 233.3324 28.3309)" style="fill:#C2FB3B;" width="29.997" height="29.997"/>
	</g>
	<g>
		<g>
			<g>
				<path style="fill:#FFDA44;" d="M436,285.964c0,49.499-40.499,90-90,90s-90-40.501-90-90H436z"/>
			</g>
		</g>
	</g>
	<path style="fill:#FFAD41;" d="M436,285.964c0,49.499-40.499,90-90,90v-90H436z"/>
	<path style="fill:#FFE98F;" d="M241,270.964v15c0,57.9,47.1,105,105,105s105-47.1,105-105v-15H241z M272.5,300.964h37.2l-26.1,26.1   C278.5,319.264,274.6,310.564,272.5,300.964z M331,359.464c-9.6-2.1-18.3-6-26.1-11.102l26.1-26.1V359.464z M361,359.464v-37.202   l26.1,26.1C379.3,353.464,370.6,357.364,361,359.464z M408.401,327.064l-26.1-26.1h37.2   C417.4,310.564,413.5,319.264,408.401,327.064z"/>
	<path style="fill:#FFDA44;" d="M346,270.964v120c57.9,0,105-47.1,105-105v-15H346z M361,359.464v-37.202l26.1,26.1   C379.3,353.464,370.6,357.364,361,359.464z M408.401,327.064l-26.1-26.1h37.2C417.4,310.564,413.5,319.264,408.401,327.064z"/>
</g>















</svg>
