<svg height="510pt" viewBox="0 -72 510.03545 510" width="510pt" xmlns="http://www.w3.org/2000/svg"><path d="m271.804688 194.695312-27.957032-16.496093 73.5-124.726563h169.730469v32.472656h-151.1875zm0 0" fill="#4dd0e1"/><path d="m422.132812 134.652344c-6.332031-6.332032-6.332031-16.625 0-22.957032l41.988282-41.984374-41.988282-41.988282c-6.332031-6.332031-6.332031-16.625 0-22.957031 6.332032-6.332031 16.625-6.332031 22.957032 0l64.945312 64.945313-64.945312 64.941406c-6.332032 6.332031-16.625 6.332031-22.957032 0zm0 0" fill="#80deea"/><path d="m487.078125 313.25h-169.730469l-133.960937-227.304688h-53.5v-32.472656h72.054687l133.949219 227.304688h151.1875zm0 0" fill="#1e88e5"/><path d="m0 53.472656h32.472656v32.472656h-32.472656zm0 0" fill="#42a5f5"/><path d="m64.945312 53.472656h32.46875v32.472656h-32.46875zm0 0" fill="#42a5f5"/><path d="m201.941406 313.25h-136.996094v-32.472656h118.441407l28.445312-48.269532 27.972657 16.480469zm0 0" fill="#4dd0e1"/><path d="m0 280.777344h32.472656v32.472656h-32.472656zm0 0" fill="#80deea"/><path d="m422.132812 361.957031c-6.332031-6.332031-6.332031-16.625 0-22.957031l41.988282-41.988281-41.988282-41.984375c-6.332031-6.332032-6.332031-16.625 0-22.957032 6.332032-6.332031 16.625-6.332031 22.957032 0l64.945312 64.941407-64.945312 64.945312c-6.332032 6.332031-16.625 6.332031-22.957032 0zm0 0" fill="#42a5f5"/></svg>