<?xml version="1.0" standalone="no"?>
<!DOCTYPE svg PUBLIC "-//W3C//DTD SVG 20010904//EN"
 "http://www.w3.org/TR/2001/REC-SVG-20010904/DTD/svg10.dtd">
<svg version="1.0" xmlns="http://www.w3.org/2000/svg"
 width="700.000000pt" height="700.000000pt" viewBox="0 0 700.000000 700.000000"
 preserveAspectRatio="xMidYMid meet">
<metadata>
Created by potrace 1.11, written by Peter Selinger 2001-2013
</metadata>
<g transform="translate(0.000000,700.000000) scale(0.100000,-0.100000)"
fill="#000000" stroke="none">
<path d="M4488 6973 c-27 -28 -51 -89 -163 -408 -31 -88 -64 -182 -75 -210
-10 -27 -46 -129 -79 -225 -34 -96 -65 -184 -70 -195 -5 -11 -30 -81 -56 -155
-43 -124 -61 -176 -125 -357 -13 -35 -26 -63 -31 -63 -19 0 -129 -57 -199
-103 -144 -95 -306 -243 -318 -291 -8 -30 6 -134 27 -205 6 -19 9 -37 6 -39
-2 -2 -40 -5 -85 -6 -77 -2 -81 -1 -76 18 21 84 28 322 14 446 -65 562 -505
1050 -1064 1180 -148 35 -184 28 -184 -35 0 -30 5 -35 83 -75 293 -153 532
-397 676 -695 35 -73 95 -240 105 -291 2 -16 12 -68 20 -115 18 -97 28 -289
16 -308 -5 -9 -10 -3 -14 16 -3 15 -23 66 -43 113 -221 509 -712 838 -1258
843 -154 2 -214 -6 -375 -45 -150 -37 -381 -142 -414 -189 -17 -25 -10 -55 16
-74 21 -14 28 -14 93 4 22 5 54 13 70 15 17 3 40 8 53 10 80 17 336 24 397 12
11 -2 45 -7 75 -11 132 -17 337 -83 467 -152 141 -74 321 -213 421 -325 l33
-37 -48 23 c-348 166 -743 184 -1099 50 -86 -32 -242 -112 -266 -136 -22 -22
-23 -61 -3 -78 21 -17 55 -15 165 9 326 70 671 26 970 -125 123 -62 116 -51
80 -130 -39 -84 -200 -470 -200 -478 0 -4 -9 -25 -19 -49 -70 -154 -224 -605
-244 -717 -3 -14 -12 -54 -20 -90 -9 -36 -18 -85 -22 -110 -4 -24 -8 -47 -10
-51 -2 -3 -7 -30 -10 -59 -4 -30 -8 -57 -10 -60 -2 -3 -6 -39 -10 -80 -4 -41
-9 -88 -11 -105 -6 -49 -5 -328 1 -355 3 -14 8 -50 11 -80 9 -86 52 -254 90
-353 212 -555 705 -975 1272 -1083 l94 -18 -6 -39 c-8 -46 -35 -103 -71 -145
-15 -18 -75 -55 -149 -92 -195 -98 -334 -214 -447 -373 -77 -108 -109 -181
-98 -220 5 -17 18 -40 29 -52 20 -20 30 -20 978 -23 526 -1 967 0 979 3 26 6
63 63 63 96 0 28 -68 151 -123 224 -110 144 -248 255 -427 345 -127 64 -176
107 -204 181 -34 92 -35 91 68 112 525 105 984 464 1216 950 111 232 162 457
164 722 1 141 -9 328 -18 344 -2 3 -6 29 -10 56 -3 28 -10 75 -16 105 -6 30
-13 69 -16 85 -2 17 -11 56 -18 87 -12 54 -12 59 6 75 43 39 81 139 94 243 4
30 8 62 10 70 1 8 3 41 3 72 l1 58 53 -34 c243 -155 390 -166 609 -43 144 81
371 277 387 335 19 66 -53 332 -135 499 -52 105 -142 210 -207 242 -71 34
-204 59 -321 60 l-58 1 18 28 c166 251 184 393 79 601 -68 137 -275 390 -340
417 -36 15 -77 11 -210 -22 -284 -71 -480 -186 -545 -320 -27 -54 -48 -157
-56 -269 -4 -49 -8 -91 -9 -93 -2 -2 -31 14 -66 35 -66 40 -156 85 -197 97
-28 9 -25 30 19 146 16 41 29 78 29 82 0 4 5 19 11 35 7 15 31 82 54 148 23
66 67 190 98 275 30 85 74 209 96 275 23 66 47 131 52 145 27 63 141 397 144
419 3 28 -15 70 -38 89 -8 7 -34 15 -58 18 -39 5 -47 3 -71 -23z"/>
</g>
</svg>
